PathFileType	4	(X/Y/Z)	AB11\squats_1.trc
DataRate	CameraRate	NumFrames	NumMarkers	Units	OrigDataRate	OrigDataStartFrame	OrigNumFrames
200.000000	200.000000	4	35	mm	200.000000	198	317
Frame#	Time	C7			LSHO			STRN			LASI			RASI			LPSI			RPSI			LGTR			RGTR			LTHC			LTHL			LTHR			LKNE			LMKNE			LSHC			LSHL			LSHR			LANK			LMANK			LMT1			LMT5			LCAL			RTHC			RTHL			RTHR			RKNE			RMKNE			RSHC			RSHL			RSHR			RANK			RMANK			RMT1			RMT5			RCAL			
		X1	Y1	Z1	X2	Y2	Z2	X3	Y3	Z3	X4	Y4	Z4	X5	Y5	Z5	X6	Y6	Z6	X7	Y7	Z7	X8	Y8	Z8	X9	Y9	Z9	X10	Y10	Z10	X11	Y11	Z11	X12	Y12	Z12	X13	Y13	Z13	X14	Y14	Z14	X15	Y15	Z15	X16	Y16	Z16	X17	Y17	Z17	X18	Y18	Z18	X19	Y19	Z19	X20	Y20	Z20	X21	Y21	Z21	X22	Y22	Z22	X23	Y23	Z23	X24	Y24	Z24	X25	Y25	Z25	X26	Y26	Z26	X27	Y27	Z27	X28	Y28	Z28	X29	Y29	Z29	X30	Y30	Z30	X31	Y31	Z31	X32	Y32	Z32	X33	Y33	Z33	X34	Y34	Z34	X35	Y35	Z35	

199	22.645	-2271.018342455101	900.7577926614798	2510.142106050126	-2190.787872422453	858.0711800213982	2387.288842149826	-2192.826063626854	781.2526439789855	2490.054182047063	-2410.251350080635	552.3634005555706	2351.887390519497	-2416.708002192334	564.5250615305559	2600.710822025462	-2613.565091263111	606.8401728129381	2426.392211527928	-2616.255507376164	610.8593613399034	2521.617496437789	-2485.984976417658	552.6516771096226	2272.575489695428	-2527.746883530109	563.9803454520918	2682.973403565783	-2365.289351309019	411.3783671097511	2264.792239093902	-2262.68715452564	527.4054026784239	2335.456465019217	-2287.277426864485	346.1362219407372	2321.485371440599	-2164.102953057223	390.8709242283427	2255.304898423365	-2155.443440254829	370.4099934221952	2386.732602844826	-2251.813180049458	323.9943882934905	2235.05952438197	-2245.512877017741	184.2007058183873	2251.338154195189	-2322.927631924581	238.855155139192	2303.286709314721	-2345.334119729645	95.32736094866424	2222.734086147249	-2322.495304240411	95.36803690286317	2307.617097692967	-2207.664179842207	63.15860247564189	2272.485565492965	-2247.599013003762	56.78221084099719	2191.900987783612	-2416.964003703603	67.38784545858178	2264.238568538178	-2243.395017489117	509.1521819568732	2577.516154623439	-2371.558281711929	462.7162659553899	2695.640120877833	-2330.163831101812	397.7807370261192	2683.122151472678	-2184.731660122117	410.3190260676029	2699.385619798514	-2172.869360137714	362.3551386779482	2572.057094656772	-2240.647923641674	175.7311722022396	2681.932533447045	-2337.804173723485	215.2444477214436	2662.07641856688	-2275.405899396668	267.6370947186403	2726.067068799608	-2346.8464053444	92.77417279741969	2724.827732626298	-2326.417940047647	87.936181411856	2642.185035431784	-2204.623957758976	66.99726900681546	2687.314553572486	-2240.215593589302	54.28517787960915	2763.1800824278	-2411.149504960925	63.41738821271329	2674.366544528104	
200	22.65	-2271.578513974122	904.9352844258862	2510.120984848842	-2191.372858831082	862.4343168501227	2387.179969042891	-2193.20027750575	785.6744838249057	2490.031064833641	-2410.138758862101	555.3912275785069	2351.933224360046	-2416.43196546016	567.4123424021375	2601.090320995891	-2613.255591694594	610.9546052284177	2426.514461259525	-2615.926357541086	614.9054268778336	2521.743999608592	-2485.882695755399	556.1145887046044	2272.577997965886	-2527.539410196998	567.5015225838688	2683.12664854588	-2365.902645152793	413.6372559170593	2265.002402964726	-2262.356803119098	528.8227347168652	2335.634440379343	-2288.470250917077	347.7221157219381	2321.734779394768	-2164.79604003862	391.3363915080888	2255.670314033189	-2156.55373396048	370.7820117011966	2386.854609710549	-2252.2454252671	324.2402440218366	2235.078262087765	-2245.799785814021	184.4097498780195	2251.351240249138	-2323.394955968205	238.9866719829555	2303.162962683254	-2345.438879199286	95.30140351549473	2222.619670526161	-2322.62482282777	95.46354299027324	2307.550120374385	-2207.743840659274	63.25984313986024	2272.508542083448	-2247.625981065619	56.82795739268526	2191.921413855719	-2417.020073977644	67.35765315463142	2264.161865940157	-2243.23664631778	510.409685715758	2577.658035397028	-2371.848051432355	464.8727392154319	2695.649502327647	-2330.956468675579	399.5386900845328	2683.05784866038	-2185.343413585521	410.7748182031548	2699.245632087838	-2173.808626836681	362.940518898541	2572.141294664385	-2240.914619292484	175.9053661973016	2681.965477698976	-2338.126864133786	215.2999819747188	2662.291398755819	-2275.749270072662	267.7630198570744	2726.1886579442	-2346.9557304063	92.73946415760265	2724.966189110428	-2326.499359153213	87.99189233099244	2642.297681859676	-2204.721250154347	67.12976481402956	2687.345626013199	-2240.249221276019	54.33610618657818	2763.247175691474	-2411.20938176876	63.42407360064265	2674.445947893812	
201	22.655	-2272.150403054877	909.1799701004244	2510.09735800681	-2191.969780933695	866.8646696013478	2387.068371360624	-2193.578578026084	790.1636723939289	2490.00965248184	-2410.005515946625	558.4498498091831	2351.975643271458	-2416.143097986428	570.3216103490856	2601.48056363682	-2612.918538688965	615.1099061577398	2426.6412633455	-2615.574295547639	618.9855030551097	2521.876130956026	-2485.751720764092	559.6210725491025	2272.579068642805	-2527.310088198099	571.0450668543829	2683.28552166345	-2366.504646277881	415.928572136375	2265.21466957545	-2262.007002735838	530.2434804472479	2335.832184968543	-2289.667430902581	349.3307527935924	2321.989824694318	-2165.490418510777	391.8069360701844	2256.048753609688	-2157.658908570412	371.1534263000836	2386.992074134342	-2252.681788472321	324.4856637937597	2235.107166740992	-2246.088477765123	184.6199494858512	2251.367367477943	-2323.864604272136	239.1191569604636	2303.043227679666	-2345.543672706928	95.27652352858695	2222.505585774391	-2322.754640000884	95.56420437782047	2307.485092797928	-2207.825638233576	63.36122822326438	2272.540041776153	-2247.653612377459	56.87378041052237	2191.944515767185	-2417.076678867359	67.32681497713082	2264.085885533006	-2243.065739908656	511.6687688477337	2577.801788736315	-2372.122602592952	467.0549610459481	2695.656969351949	-2331.745849918339	401.3162656811318	2682.990934315633	-2185.959253916586	411.2334972500176	2699.10112268782	-2174.753810127778	363.5239501228818	2572.223445674944	-2241.186665395156	176.0826205606126	2681.99940433641	-2338.452034270495	215.359786516439	2662.508665486179	-2276.096241591092	267.8917595750477	2726.31000357871	-2347.065937081965	92.70295501805396	2725.105297186543	-2326.581799880214	88.0472759339912	2642.412787011726	-2204.821478738432	67.26778222686232	2687.373975143383	-2240.283440144471	54.38418252030232	2763.31496978719	-2411.269715887292	63.43170902112379	2674.527565598454	
202	22.66	-2272.733639577221	913.4912166853529	2510.071771809503	-2192.578258113905	871.3615968928822	2386.954609228645	-2193.960417267757	794.7198560091603	2489.990605674632	-2409.851941839016	561.5387001469438	2352.013251039868	-2415.842192491442	573.2540728980447	2601.880061003337	-2612.554081806414	619.3025035438886	2426.772246736711	-2615.199498261169	623.0964793382805	2522.014016670536	-2485.591480868323	563.1681747320243	2272.578143736964	-2527.058911986002	574.6075593288688	2683.449906940916	-2367.094572885535	418.2506978692738	2265.429821665908	-2261.6382767164	531.6671833254801	2336.048477100256	-2290.867499258872	350.9601900209688	2322.251318643406	-2166.186361894287	392.2826500440001	2256.440089952644	-2158.755553852935	371.5259959450992	2387.146465912448	-2253.123172993166	324.7310428005218	2235.147887438746	-2246.379041293959	184.8317548595152	2251.387280543076	-2324.336521875114	239.2521245823997	2302.928883910808	-2345.648376742161	95.25269925075671	2222.392128320856	-2322.884756180232	95.66965046397361	2307.42204449547	-2207.909615533745	63.46302201354933	2272.580512966892	-2247.682142153777	56.91970727129268	2191.970319355346	-2417.13397119299	67.29537257086388	2264.010398000439	-2242.882510496704	512.9275951429491	2577.945270387866	-2372.380664843591	469.2622069740541	2695.661403359617	-2332.530011945943	403.1132870391684	2682.919878116499	-2186.57823615482	411.6948229854784	2698.95079747309	-2175.704275048352	364.105076615652	2572.301350180226	-2241.464066103877	176.2627764902745	2682.033374923144	-2338.779752832733	215.4239757808773	2662.726915792151	-2276.4466520471	268.0237678699772	2726.429586183591	-2347.176570515961	92.66510932933397	2725.244206970458	-2326.665524015925	88.10205400879161	2642.529726130661	-2204.924065349253	67.4110513229043	2687.398778487004	-2240.318135207045	54.42906566975368	2763.382133436064	-2411.330364520156	63.4397358754922	2674.610998507588	
